<svg width="16" height="15" viewBox="0 0 16 15" fill="none" xmlns="http://www.w3.org/2000/svg">
<g clip-path="url(#clip0_1_161)">
<path d="M7.47576 5.77098H8.6766V3.96971H10.4779V2.76886H8.6766V0.96759H7.47576V2.76886H5.67449V3.96971H7.47576V5.77098ZM5.07407 11.1748C4.4136 11.1748 3.87922 11.7152 3.87922 12.3756C3.87922 13.0361 4.4136 13.5765 5.07407 13.5765C5.73453 13.5765 6.27491 13.0361 6.27491 12.3756C6.27491 11.7152 5.73453 11.1748 5.07407 11.1748ZM11.0783 11.1748C10.4178 11.1748 9.88346 11.7152 9.88346 12.3756C9.88346 13.0361 10.4178 13.5765 11.0783 13.5765C11.7388 13.5765 12.2791 13.0361 12.2791 12.3756C12.2791 11.7152 11.7388 11.1748 11.0783 11.1748ZM5.17614 9.22341L5.19415 9.15136L5.73453 8.17267H10.2077C10.658 8.17267 11.0543 7.92649 11.2584 7.55423L13.5761 3.34527L12.5313 2.76886H12.5253L11.8649 3.96971L10.2077 6.97182H5.99271L5.91466 6.80971L4.56971 3.96971L3.99931 2.76886L3.43491 1.56801H1.47153V2.76886H2.67237L4.8339 7.32607L4.02333 8.79711C3.92726 8.96523 3.87322 9.16337 3.87322 9.37351C3.87322 10.034 4.4136 10.5744 5.07407 10.5744H12.2791V9.37351H5.32624C5.24819 9.37351 5.17614 9.30747 5.17614 9.22341Z" fill="#1B264F"/>
</g>
<defs>
<clipPath id="clip0_1_161">
<rect x="0.871094" y="0.367188" width="14.4102" height="14.4102" rx="7.20508" fill="white"/>
</clipPath>
</defs>
</svg>
