<svg width="22" height="22" viewBox="0 0 22 22" fill="none" xmlns="http://www.w3.org/2000/svg">
<path d="M15.2075 6.94837L9.16665 12.9892L5.87581 9.70754L4.58331 11L9.16665 15.5834L16.5 8.25004L15.2075 6.94837ZM11 1.83337C5.93998 1.83337 1.83331 5.94004 1.83331 11C1.83331 16.06 5.93998 20.1667 11 20.1667C16.06 20.1667 20.1666 16.06 20.1666 11C20.1666 5.94004 16.06 1.83337 11 1.83337ZM11 18.3334C6.94831 18.3334 3.66665 15.0517 3.66665 11C3.66665 6.94837 6.94831 3.66671 11 3.66671C15.0516 3.66671 18.3333 6.94837 18.3333 11C18.3333 15.0517 15.0516 18.3334 11 18.3334Z" fill="#75DB1B"/>
</svg>
