<svg width="16" height="15" viewBox="0 0 16 15" fill="none" xmlns="http://www.w3.org/2000/svg">
<path d="M10.5124 2.16846C9.4677 2.16846 8.465 2.6548 7.81054 3.42334C7.15608 2.6548 6.15337 2.16846 5.10863 2.16846C3.25933 2.16846 1.8063 3.62148 1.8063 5.47078C1.8063 7.74038 3.84774 9.58969 6.93992 12.3997L7.81054 13.1862L8.68115 12.3937C11.7733 9.58969 13.8148 7.74038 13.8148 5.47078C13.8148 3.62148 12.3617 2.16846 10.5124 2.16846ZM7.87058 11.505L7.81054 11.5651L7.75049 11.505C4.89248 8.91721 3.00715 7.20601 3.00715 5.47078C3.00715 4.26994 3.90779 3.3693 5.10863 3.3693C6.03328 3.3693 6.93392 3.96372 7.25214 4.7863H8.37493C8.68715 3.96372 9.58779 3.3693 10.5124 3.3693C11.7133 3.3693 12.6139 4.26994 12.6139 5.47078C12.6139 7.20601 10.7286 8.91721 7.87058 11.505Z" fill="#1B264F"/>
</svg>
