<svg width="65" height="83" viewBox="0 0 65 83" fill="none" xmlns="http://www.w3.org/2000/svg">
<path d="M8.125 54.9933C8.125 56.7243 9.52829 58.1276 11.2593 58.1276H49.6782C51.4092 58.1276 52.8125 56.7243 52.8125 54.9933C52.8125 53.2622 51.4092 51.8589 49.6782 51.8589H11.2593C9.52829 51.8589 8.125 53.2622 8.125 54.9933ZM8.125 39.3216C8.125 41.0527 9.52829 42.4559 11.2593 42.4559H49.6782C51.4092 42.4559 52.8125 41.0527 52.8125 39.3216C52.8125 37.5906 51.4092 36.1873 49.6782 36.1873H11.2593C9.52829 36.1873 8.125 37.5906 8.125 39.3216ZM11.2593 20.5156C9.52829 20.5156 8.125 21.9189 8.125 23.65C8.125 25.381 9.52829 26.7843 11.2593 26.7843H49.6782C51.4092 26.7843 52.8125 25.381 52.8125 23.65C52.8125 21.9189 51.4092 20.5156 49.6782 20.5156H11.2593Z" fill="white"/>
</svg>
