<svg width="57" height="57" viewBox="0 0 57 57" fill="none" xmlns="http://www.w3.org/2000/svg">
<path d="M19 7.125C12.4502 7.125 7.125 12.4502 7.125 19V38C7.125 44.5498 12.4502 49.875 19 49.875H38C44.5498 49.875 49.875 44.5498 49.875 38V19C49.875 12.4502 44.5498 7.125 38 7.125H19ZM19 11.875H38C41.9243 11.875 45.125 15.0757 45.125 19V38C45.125 41.9243 41.9243 45.125 38 45.125H19C15.0757 45.125 11.875 41.9243 11.875 38V19C11.875 15.0757 15.0757 11.875 19 11.875ZM40.375 14.25C39.0669 14.25 38 15.3169 38 16.625C38 17.9331 39.0669 19 40.375 19C41.6831 19 42.75 17.9331 42.75 16.625C42.75 15.3169 41.6831 14.25 40.375 14.25ZM28.5 16.625C21.9502 16.625 16.625 21.9502 16.625 28.5C16.625 35.0498 21.9502 40.375 28.5 40.375C35.0498 40.375 40.375 35.0498 40.375 28.5C40.375 21.9502 35.0498 16.625 28.5 16.625ZM28.5 21.375C32.4243 21.375 35.625 24.5757 35.625 28.5C35.625 32.4243 32.4243 35.625 28.5 35.625C24.5757 35.625 21.375 32.4243 21.375 28.5C21.375 24.5757 24.5757 21.375 28.5 21.375Z" fill="#1B264F"/>
</svg>
