<svg width="57" height="57" viewBox="0 0 57 57" fill="none" xmlns="http://www.w3.org/2000/svg">
<path d="M53.2001 13.1812C51.3817 13.9901 49.4297 14.5319 47.3813 14.7769C49.4743 13.5226 51.0774 11.5335 51.8344 9.16592C49.875 10.3312 47.7079 11.1772 45.3997 11.63C43.5516 9.66318 40.9168 8.43115 38 8.43115C32.404 8.43115 27.8618 12.9659 27.8618 18.562C27.8618 19.3562 27.9583 20.1354 28.129 20.8702C19.7051 20.4472 12.2387 16.4171 7.23638 10.2792C6.36802 11.7784 5.87075 13.5151 5.87075 15.378C5.87075 18.896 7.652 21.9983 10.3758 23.8093C8.71333 23.7573 7.14732 23.3046 5.78169 22.5476C5.78169 22.5921 5.78169 22.6292 5.78169 22.6737C5.78169 27.587 9.27739 31.6839 13.9161 32.6116C13.0625 32.8417 12.1645 32.9679 11.2442 32.9679C10.5911 32.9679 9.95278 32.9011 9.33677 32.7823C10.6282 36.8124 14.3688 39.744 18.8071 39.8257C15.3336 42.5421 10.9696 44.1601 6.21958 44.1601C5.40317 44.1601 4.59419 44.1155 3.80005 44.019C8.28286 46.8987 13.6118 48.5761 19.334 48.5761C37.9778 48.5761 48.168 33.1312 48.168 19.7347C48.168 19.2968 48.1606 18.8589 48.1383 18.4284C50.12 16.996 51.8418 15.2147 53.2001 13.1812Z" fill="#1B264F"/>
</svg>
