<svg width="57" height="57" viewBox="0 0 57 57" fill="none" xmlns="http://www.w3.org/2000/svg">
<path d="M51.2991 40.2544C50.8259 42.75 48.8081 44.6519 46.3125 45.0044C42.3928 45.5981 35.8616 46.3125 28.5 46.3125C21.2544 46.3125 14.7231 45.5981 10.6875 45.0044C8.1919 44.6519 6.17407 42.75 5.70093 40.2544C5.22314 37.5269 4.75 33.4866 4.75 28.5C4.75 23.5134 5.22314 19.4731 5.70093 16.7456C6.17407 14.25 8.1919 12.3481 10.6875 11.9956C14.6072 11.4019 21.1384 10.6875 28.5 10.6875C35.8616 10.6875 42.2769 11.4019 46.3125 11.9956C48.8081 12.3481 50.8259 14.25 51.2991 16.7456C51.7769 19.4731 52.3706 23.5134 52.3706 28.5C52.25 33.4866 51.7769 37.5269 51.2991 40.2544Z" fill="#1B264F"/>
<path d="M23.75 36.8125V20.1875L38 28.5L23.75 36.8125Z" fill="white"/>
</svg>
