<svg width="57" height="57" viewBox="0 0 57 57" fill="none" xmlns="http://www.w3.org/2000/svg">
<path d="M28.5 5.7002C15.905 5.7002 5.69995 15.9053 5.69995 28.5002C5.69995 32.7752 6.90229 36.7682 8.95073 40.1896L5.90034 51.3002L17.2558 48.324C20.5734 50.2092 24.4105 51.3002 28.5 51.3002C41.0949 51.3002 51.2999 41.0951 51.2999 28.5002C51.2999 15.9053 41.0949 5.7002 28.5 5.7002ZM20.6921 17.8646C21.0632 17.8646 21.4492 17.8646 21.7757 17.8795C22.1839 17.8869 22.6218 17.9166 23.0449 18.8518C23.5496 19.9725 24.648 22.7631 24.789 23.0451C24.93 23.3271 25.0265 23.6611 24.8335 24.0322C24.648 24.4107 24.5515 24.6408 24.2769 24.9748C23.9949 25.3088 23.6832 25.7096 23.4308 25.9545C23.1414 26.2439 22.8519 26.5482 23.1785 27.1123C23.505 27.6838 24.6406 29.5318 26.3179 31.0236C28.4777 32.9533 30.296 33.5396 30.8601 33.8217C31.4242 34.1111 31.7507 34.0666 32.0847 33.6807C32.4187 33.317 33.4949 32.0404 33.8734 31.4764C34.2445 30.9123 34.623 31.0088 35.1351 31.1943C35.6546 31.3799 38.4304 32.7455 38.9945 33.0275C39.566 33.317 39.9371 33.458 40.0781 33.6807C40.2265 33.9182 40.2265 35.0537 39.7515 36.3674C39.2839 37.6885 36.9832 38.9576 35.9441 39.0467C34.905 39.1506 33.9328 39.5217 29.1679 37.6439C23.4234 35.3803 19.8015 29.4947 19.5121 29.1162C19.23 28.7451 17.2113 26.0584 17.2113 23.2826C17.2113 20.4994 18.6734 19.1338 19.1855 18.5697C19.705 18.0057 20.3136 17.8646 20.6921 17.8646Z" fill="#1B264F"/>
</svg>
