<svg width="45" height="44" viewBox="0 0 45 44" fill="none" xmlns="http://www.w3.org/2000/svg">
<g clip-path="url(#clip0_123_55)">
<path d="M28.5504 25.705H27.1063L26.5944 25.2114C28.3859 23.1275 29.4644 20.422 29.4644 17.479C29.4644 10.9165 24.1449 5.59698 17.5824 5.59698C11.0199 5.59698 5.70044 10.9165 5.70044 17.479C5.70044 24.0415 11.0199 29.361 17.5824 29.361C20.5255 29.361 23.2309 28.2824 25.3149 26.491L25.8084 27.0028V28.447L34.9484 37.5687L37.6721 34.8449L28.5504 25.705ZM17.5824 25.705C13.0307 25.705 9.35643 22.0307 9.35643 17.479C9.35643 12.9273 13.0307 9.25298 17.5824 9.25298C22.1341 9.25298 25.8084 12.9273 25.8084 17.479C25.8084 22.0307 22.1341 25.705 17.5824 25.705Z" fill="white"/>
</g>
<defs>
<clipPath id="clip0_123_55">
<rect width="43.8719" height="43.8719" fill="white" transform="translate(0.216553 0.112991)"/>
</clipPath>
</defs>
</svg>
