<svg width="40" height="40" viewBox="0 0 40 40" fill="none" xmlns="http://www.w3.org/2000/svg">
<path d="M11.6667 30C9.83342 30 8.35008 31.5 8.35008 33.3333C8.35008 35.1666 9.83342 36.6666 11.6667 36.6666C13.5001 36.6666 15.0001 35.1666 15.0001 33.3333C15.0001 31.5 13.5001 30 11.6667 30ZM1.66675 3.33331V6.66665H5.00008L11.0001 19.3166L8.75008 23.4C8.48342 23.8666 8.33342 24.4166 8.33342 25C8.33342 26.8333 9.83342 28.3333 11.6667 28.3333H31.6667V25H12.3667C12.1334 25 11.9501 24.8166 11.9501 24.5833L12.0001 24.3833L13.5001 21.6666H25.9167C27.1667 21.6666 28.2667 20.9833 28.8334 19.95L34.8001 9.13331C34.9334 8.89998 35.0001 8.61665 35.0001 8.33331C35.0001 7.41665 34.2501 6.66665 33.3334 6.66665H8.68341L7.11675 3.33331H1.66675ZM28.3334 30C26.5001 30 25.0168 31.5 25.0168 33.3333C25.0168 35.1666 26.5001 36.6666 28.3334 36.6666C30.1667 36.6666 31.6667 35.1666 31.6667 33.3333C31.6667 31.5 30.1667 30 28.3334 30Z" fill="white"/>
</svg>
